<?xml version="1.0" standalone="no"?>
<!DOCTYPE svg PUBLIC "-//W3C//DTD SVG 20010904//EN"
 "http://www.w3.org/TR/2001/REC-SVG-20010904/DTD/svg10.dtd">
<svg version="1.0" xmlns="http://www.w3.org/2000/svg"
 width="800.000000pt" height="800.000000pt" viewBox="0 0 800.000000 800.000000"
 preserveAspectRatio="xMidYMid meet">
<metadata>
Created by potrace 1.14, written by Peter Selinger 2001-2017
</metadata>
<g transform="translate(0.000000,800.000000) scale(0.100000,-0.100000)"
fill="#000000" stroke="none">
<path d="M5700 7219 c0 -5 5 -7 10 -4 6 3 10 8 10 11 0 2 -4 4 -10 4 -5 0 -10
-5 -10 -11z"/>
<path d="M5583 7124 c-31 -58 -46 -68 -96 -61 -23 3 -65 9 -92 12 -48 7 -51 6
-63 -19 -8 -17 -19 -26 -36 -26 -15 0 -33 -12 -51 -36 -17 -23 -32 -33 -42
-30 -9 4 -22 1 -29 -5 -9 -8 -163 -14 -486 -20 -260 -4 -563 -13 -673 -18
-110 -6 -393 -15 -630 -21 -453 -11 -508 -17 -675 -67 -112 -33 -321 -145
-380 -203 -53 -53 -93 -118 -124 -203 -22 -61 -23 -62 -57 -60 -31 3 -32 2
-12 -9 13 -6 23 -14 23 -17 9 -119 6 -131 -36 -131 -13 0 -24 -4 -24 -10 0 -5
4 -10 9 -10 5 0 23 -13 40 -29 39 -37 41 -78 6 -111 -32 -31 -32 -41 6 -69 23
-17 30 -29 26 -47 -3 -18 4 -28 39 -50 43 -27 54 -47 34 -59 -17 -11 -11 -25
11 -25 52 0 79 -53 47 -91 -7 -7 8 5 33 29 25 23 48 39 52 35 4 -4 24 -6 44
-5 20 2 43 -3 52 -11 9 -8 33 -20 54 -27 30 -9 42 -21 53 -47 14 -32 17 -34
47 -28 42 10 47 13 47 34 0 11 8 29 19 42 16 20 22 22 44 12 16 -8 28 -23 33
-45 6 -30 8 -26 23 47 l16 80 162 3 161 2 12 -34 c16 -50 60 -92 109 -106 51
-13 105 -65 149 -141 17 -30 55 -83 86 -118 68 -79 81 -126 64 -235 -9 -58 -9
-80 1 -105 14 -33 46 -50 63 -33 16 16 21 103 9 147 -6 22 -14 79 -18 127 -5
76 -3 93 15 130 11 24 26 61 32 83 24 76 52 125 85 145 46 28 55 25 55 -17 l0
-38 -20 25 c-11 14 -20 20 -20 13 0 -6 4 -14 9 -17 5 -4 9 -27 9 -52 0 -30 6
-50 16 -57 13 -10 18 -46 26 -172 17 -273 32 -362 125 -735 24 -96 53 -215 64
-265 11 -49 36 -158 55 -240 120 -530 127 -1004 20 -1405 -65 -245 -167 -474
-290 -652 -85 -122 -144 -179 -229 -219 -88 -42 -141 -40 -242 11 -136 68
-367 293 -488 475 -91 138 -148 194 -250 246 -44 23 -109 66 -144 96 -94 79
-132 97 -216 97 -48 0 -81 -6 -105 -18 -80 -41 -163 -150 -195 -256 -9 -30
-25 -75 -36 -100 -34 -80 -65 -213 -68 -289 -2 -79 -14 -112 -56 -151 -47 -43
-48 -62 -10 -142 19 -40 35 -86 35 -104 0 -39 34 -106 85 -167 32 -39 50 -50
98 -64 75 -21 102 -52 92 -108 -21 -131 -18 -157 23 -207 32 -39 108 -31 140
14 13 18 15 17 48 -12 19 -16 44 -30 55 -30 40 0 85 -27 102 -61 14 -31 14
-40 -1 -102 -15 -65 -15 -68 6 -112 67 -138 202 -67 202 106 l0 59 40 -20 c22
-11 73 -42 114 -69 90 -59 284 -132 424 -161 205 -41 482 -19 675 56 425 164
718 456 971 969 113 228 163 356 232 595 52 181 74 301 105 570 18 167 21 228
16 425 -12 463 -47 690 -207 1345 -121 497 -140 610 -140 851 0 64 -7 153 -15
196 -8 43 -15 79 -15 81 0 1 85 2 189 2 l189 0 55 -61 c46 -52 61 -62 100 -70
75 -14 111 -33 132 -72 19 -36 19 -37 0 -132 -18 -94 -18 -98 0 -152 22 -64
69 -103 123 -103 56 0 86 24 124 97 35 68 35 68 31 178 -5 125 2 146 57 182
19 12 53 35 75 50 22 15 57 30 79 33 53 7 63 26 47 90 -15 59 -8 124 20 189
15 35 17 51 9 80 -14 51 -13 61 10 61 22 0 27 16 8 23 -10 3 -10 11 0 39 30
86 3 193 -62 243 -42 32 -71 110 -56 149 9 26 5 36 -17 36 -7 0 -13 -10 -14
-22 0 -13 -3 -17 -6 -10 -3 7 -16 17 -29 22 -15 6 -24 18 -24 31 0 16 -4 19
-17 15 -9 -4 -32 4 -56 20 -35 23 -39 29 -33 57 3 17 14 39 23 49 23 25 4 23
-24 -4 -14 -13 -27 -18 -32 -12 -16 16 -51 144 -51 184 0 52 -22 69 -44 35
-25 -38 -50 -29 -56 20 l-6 40 -21 -41z m-2073 -304 c13 -9 13 -11 0 -20 -20
-13 -102 -8 -107 7 -7 20 80 31 107 13z m-221 -9 c24 -15 -5 -22 -132 -31
-279 -20 -436 -63 -612 -170 -89 -53 -106 -60 -84 -34 37 45 209 138 319 173
59 19 245 55 330 64 70 8 165 7 179 -2z m445 -17 c13 -5 14 -9 5 -20 -15 -18
-35 -18 -42 0 -9 23 7 32 37 20z m-1349 -313 c3 -5 -2 -17 -11 -26 -19 -19
-40 -6 -31 19 7 17 32 21 42 7z m1512 -609 c22 -14 32 -107 43 -367 6 -149 16
-276 25 -315 8 -36 15 -76 14 -90 0 -23 -1 -24 -13 -7 -26 34 -49 232 -51 437
-3 260 -13 330 -46 330 -11 0 -17 5 -14 10 7 12 25 13 42 2z m112 -973 c13
-38 15 -109 2 -109 -4 0 -11 24 -14 53 -3 28 -8 60 -12 70 -4 9 -3 17 3 17 6
0 15 -14 21 -31z m61 -245 c0 -14 -4 -23 -10 -19 -5 3 -10 15 -10 26 0 10 5
19 10 19 6 0 10 -12 10 -26z m-1962 -2146 c-78 -119 -138 -295 -138 -405 0
-78 -10 -103 -29 -79 -19 23 -4 154 30 268 22 70 44 116 80 167 27 39 54 71
60 71 7 0 6 -9 -3 -22z m2804 -369 c-100 -286 -304 -685 -372 -727 -34 -21
-23 4 33 77 81 104 310 584 352 736 5 19 10 24 12 14 2 -9 -9 -54 -25 -100z
m-2972 -237 c0 -21 -7 -47 -16 -58 -14 -18 -15 -16 -10 29 9 74 26 93 26 29z
m28 -201 c3 -16 -1 -22 -10 -19 -7 3 -15 15 -16 27 -3 16 1 22 10 19 7 -3 15
-15 16 -27z m2442 -430 c0 -6 -10 -17 -22 -26 -26 -17 -37 -3 -18 20 14 17 40
20 40 6z m-172 -133 c-3 -7 -13 -15 -24 -17 -16 -3 -17 -1 -5 13 16 19 34 21
29 4z"/>
<path d="M6135 6451 c-3 -5 -1 -12 5 -16 5 -3 10 1 10 9 0 18 -6 21 -15 7z"/>
<path d="M2257 5643 c-4 -3 -7 -11 -7 -17 0 -6 5 -5 12 2 6 6 9 14 7 17 -3 3
-9 2 -12 -2z"/>
<path d="M3116 5524 c-3 -9 -3 -20 0 -25 8 -13 34 9 34 27 0 19 -26 18 -34 -2z"/>
<path d="M3260 5481 c0 -11 4 -22 9 -25 12 -8 34 21 26 34 -11 17 -35 11 -35
-9z"/>
<path d="M3210 5450 c0 -5 5 -10 10 -10 6 0 10 5 10 10 0 6 -4 10 -10 10 -5 0
-10 -4 -10 -10z"/>
<path d="M3508 5238 c-6 -17 1 -38 13 -38 5 0 9 11 9 25 0 26 -14 34 -22 13z"/>
<path d="M3127 5017 c-11 -29 -9 -43 4 -30 6 6 9 19 7 29 -3 18 -4 18 -11 1z"/>
<path d="M3026 4942 c-10 -12 -16 -29 -14 -39 3 -15 6 -14 22 9 23 35 17 57
-8 30z"/>
<path d="M3670 4880 c0 -11 5 -20 10 -20 6 0 10 9 10 20 0 11 -4 20 -10 20 -5
0 -10 -9 -10 -20z"/>
<path d="M1744 1715 c-7 -17 4 -37 17 -30 12 8 12 45 -1 45 -6 0 -13 -7 -16
-15z"/>
</g>
</svg>
